<svg data-v-423bf9ae="" xmlns="http://www.w3.org/2000/svg" viewBox="0 0 568 90" class="iconLeftSlogan"><!----><!----><!----><g data-v-423bf9ae="" id="5e9888e9-32c9-496e-90b2-c7976e906ef9" fill="#ffffff" transform="matrix(6.864988803863525,0,0,6.864988803863525,145.09994506835938,-11.601831436157227)"><path d="M7.11 3.01L7.11 1.86L0.28 1.86L0.28 4.00L0.74 4.00L1.23 3.01L3.01 3.01L3.01 10.26L4.38 10.26L4.38 3.01ZM15.34 10.26L15.34 1.86L13.01 1.86L13.01 2.32L14.01 2.84L14.01 5.36L9.83 5.36L9.83 1.86L8.51 1.86L8.51 10.26L9.83 10.26L9.83 6.69L14.01 6.69L14.01 10.26ZM23.09 10.26L23.09 9.13L18.93 9.13L18.93 6.59L23.09 6.59L23.09 5.46L18.93 5.46L18.93 3.00L23.09 3.00L23.09 1.86L17.28 1.86L17.58 2.91L17.58 10.26ZM35.62 10.05L35.62 6.62L34.27 6.62L34.27 9.11C33.92 9.18 33.56 9.23 33.22 9.23C31.19 9.23 30.13 8.16 30.13 6.06C30.13 3.96 31.19 2.90 33.22 2.90C33.66 2.90 34.13 2.95 34.59 3.04L35.17 4.00L35.62 4.00L35.62 2.07C34.94 1.86 33.95 1.69 33.22 1.69C30.31 1.69 28.69 3.39 28.69 6.06C28.69 8.74 30.31 10.43 33.22 10.43C33.95 10.43 34.94 10.26 35.62 10.05ZM44.31 10.26L40.95 1.86L39.12 1.86L39.12 2.91L36.18 10.26L37.70 10.26L38.49 8.16L42.01 8.16L42.80 10.26ZM41.57 6.96L38.92 6.96L40.25 3.43ZM50.65 10.26L50.65 8.12L50.20 8.12L49.69 9.11L46.52 9.11L46.52 1.86L45.15 1.86L45.15 10.26ZM57.55 10.26L57.55 8.12L57.11 8.12L56.59 9.11L53.42 9.11L53.42 1.86L52.05 1.86L52.05 10.26ZM61.59 10.26L61.59 9.80L60.58 9.28L60.58 2.84L61.59 2.32L61.59 1.86L58.18 1.86L58.18 2.32L59.19 2.84L59.19 9.28L58.18 9.80L58.18 10.26Z"></path></g><!----><g data-v-423bf9ae="" id="978cf854-56c6-4757-b7bb-95d41f446398" transform="matrix(1.2857142686843872,0,0,1.2857142686843872,-0.6956408023834229,-16.904855728149414)" stroke="none" fill="#e4c590"><path d="M6.798 43.464c0-4.328 3.848-4.356 3.848-10.176 0-3.004-1.342-4.931-1.757-13.291-.009-.187-.721-.324-.755-.149-.048.246.258 13.473.201 13.809-.041.246-.766.268-.821-.018-.05-.255-.479-13.289-.52-13.731-.034-.37-.756-.262-.875-.147 0 0-.018 13.793-.038 13.938-.033.239-.822.248-.87 0-.027-.144-.038-13.939-.038-13.939-.119-.114-.84-.222-.875.147-.041.442-.47 13.476-.52 13.731-.055.286-.78.264-.821.018-.057-.335.25-13.562.201-13.809-.034-.175-.746-.038-.755.149C1.988 28.356.646 30.283.646 33.287c0 5.82 3.847 5.848 3.848 10.176 0 3.669.025 15.654 0 16.219-.236 5.216-2.238 11.018-2.238 15.867 0 4.104 3.302 4.104 3.302 4.104l.088-.002.088.002s3.302 0 3.302-4.104c0-4.851-2.002-10.648-2.239-15.867-.024-.564.001-12.55.001-16.218zM99.441 33.579c0-4.918-2.183-13.639-6-13.639-3.818 0-6 8.72-6 13.639 0 5.814 4.901 5.888 4.901 10.211 0 3.665.025 15.64 0 16.2-.243 5.212-2.31 11.005-2.31 15.852 0 4.1 3.406 4.1 3.406 4.1s3.406 0 3.406-4.1c0-4.847-2.066-10.64-2.31-15.852-.024-.562 0-12.536 0-16.2.005-4.323 4.907-4.396 4.907-10.211zM49.667 13.667c-19.33 0-35 15.67-35 35s15.67 35 35 35 35-15.67 35-35-15.67-35-35-35zm0 60c-13.807 0-25-11.192-25-25 0-13.807 11.193-25 25-25 13.808 0 25 11.193 25 25 0 13.808-11.192 25-25 25z"></path><circle cx="49.667" cy="48.667" r="23.5"></circle></g><!----><g data-v-423bf9ae="" id="ca6479af-90f4-4dec-80f3-304b39cf321b" fill="#e4c590" transform="matrix(2.1595304012298584,0,0,2.1595304012298584,146.33111572265625,54.082889556884766)"><path d="M0.71 3.64L0.32 3.64L0.33 3.08L3.55 3.08L3.55 3.08Q4.69 3.08 5.29 3.21L5.29 3.21L5.29 3.21Q5.93 3.37 6.40 3.75L6.40 3.75L6.40 3.75Q7.40 4.57 7.40 5.71L7.40 5.71L7.40 5.71Q7.40 6.43 6.93 7.04L6.93 7.04L6.93 7.04Q6.44 7.66 5.41 7.92L5.41 7.92L8.09 11.49L8.09 11.49Q8.40 11.87 8.70 11.87L8.70 11.87L9.30 11.87L9.32 12.41L7.29 12.41L4.30 8.10L4.13 8.10L4.13 8.10Q4.09 8.10 4.03 8.11L4.03 8.11L4.03 8.11Q3.98 8.11 3.96 8.11L3.96 8.11L3.96 8.11Q3.08 8.11 2.69 8.03L2.69 8.03L2.69 11.46L2.69 11.46Q2.69 11.76 2.83 11.81L2.83 11.81L2.83 11.81Q2.95 11.87 3.66 11.87L3.66 11.87L4.37 11.87L4.34 12.41L0.62 12.41L0.62 11.87L0.94 11.87L0.94 11.87Q1.40 11.87 1.47 11.81L1.47 11.81L1.47 11.81Q1.55 11.74 1.55 11.46L1.55 11.46L1.55 4.14L1.55 4.14Q1.55 3.82 1.36 3.73L1.36 3.73L1.36 3.73Q1.13 3.64 0.71 3.64L0.71 3.64ZM2.69 4.28L2.69 7.57L2.69 7.57Q2.87 7.70 3.58 7.71L3.58 7.71L3.58 7.71Q4.85 7.71 5.43 7.27L5.43 7.27L5.43 7.27Q6.02 6.84 6.02 5.92L6.02 5.92L6.02 5.92Q6.02 4.92 5.25 4.27L5.25 4.27L5.25 4.27Q4.49 3.64 3.11 3.64L3.11 3.64L3.11 3.64Q2.86 3.64 2.78 3.75L2.78 3.75L2.78 3.75Q2.69 3.84 2.69 4.28L2.69 4.28ZM17.09 3.64L17.08 3.08L24.29 3.08L24.29 3.08Q24.30 4.14 24.36 5.28L24.36 5.28L23.81 5.30L23.81 5.30Q23.80 4.66 23.74 4.25L23.74 4.25L23.74 4.25Q23.70 3.89 23.65 3.80L23.65 3.80L23.65 3.80Q23.59 3.71 23.47 3.69L23.47 3.69L23.47 3.69Q23.38 3.68 22.79 3.68L22.79 3.68L20.41 3.68L20.41 3.68Q19.87 3.68 19.72 3.77L19.72 3.77L19.72 3.77Q19.60 3.86 19.60 4.33L19.60 4.33L19.60 6.28L19.60 6.28Q19.60 6.69 19.65 6.76L19.65 6.76L19.65 6.76Q19.72 6.84 20.06 6.84L20.06 6.84L22.18 6.84L22.18 6.84Q22.54 6.84 22.62 6.73L22.62 6.73L22.62 6.73Q22.70 6.63 22.71 6.14L22.71 6.14L22.71 5.61L23.22 5.63L23.22 8.97L22.71 8.97L22.71 8.24L22.71 8.24Q22.71 7.66 22.63 7.57L22.63 7.57L22.63 7.57Q22.55 7.46 22.20 7.46L22.20 7.46L20.10 7.46L20.10 7.46Q19.77 7.46 19.68 7.54L19.68 7.54L19.68 7.54Q19.60 7.63 19.60 7.89L19.60 7.89L19.60 11.20L19.60 11.20Q19.60 11.57 19.68 11.67L19.68 11.67L19.68 11.67Q19.77 11.77 20.04 11.77L20.04 11.77L20.04 11.77Q22.96 11.75 23.49 11.69L23.49 11.69L23.49 11.69Q24.01 11.63 24.09 11.38L24.09 11.38L24.10 11.36L24.10 11.35L24.33 10.17L24.81 10.25L24.46 12.41L17.36 12.41L17.36 11.87L17.73 11.87L17.73 11.87Q18.29 11.87 18.37 11.80L18.37 11.80L18.37 11.80Q18.46 11.72 18.46 11.33L18.46 11.33L18.46 4.24L18.46 4.24Q18.46 3.82 18.31 3.73L18.31 3.73L18.31 3.73Q18.14 3.64 17.49 3.64L17.49 3.64L17.09 3.64ZM32.66 10.04L32.66 10.04L33.15 9.98L33.33 10.85L33.33 10.85Q33.44 11.33 33.51 11.41L33.51 11.41L33.51 11.41Q33.58 11.49 33.99 11.64L33.99 11.64L33.99 11.64Q34.83 11.95 35.72 11.95L35.72 11.95L35.72 11.95Q36.51 11.95 37.05 11.49L37.05 11.49L37.05 11.49Q37.58 11.04 37.58 10.26L37.58 10.26L37.58 10.26Q37.58 9.65 37.13 9.21L37.13 9.21L37.13 9.21Q36.65 8.76 35.79 8.30L35.79 8.30L35.22 7.98L35.22 7.98Q34.47 7.55 34.24 7.36L34.24 7.36L34.24 7.36Q33.88 7.08 33.57 6.59L33.57 6.59L33.57 6.59Q33.26 6.10 33.26 5.46L33.26 5.46L33.26 5.46Q33.26 4.39 34.10 3.68L34.10 3.68L34.10 3.68Q34.94 2.97 36.05 2.97L36.05 2.97L36.05 2.97Q36.33 2.97 36.67 3.04L36.67 3.04L36.67 3.04Q36.87 3.08 37.21 3.17L37.21 3.17L37.45 3.25L37.45 3.25Q37.54 3.25 37.58 3.16L37.58 3.16L37.58 3.16Q37.64 3.05 37.64 2.98L37.64 2.98L37.65 2.88L38.13 2.85L38.34 5.41L37.84 5.43L37.71 4.18L37.71 4.18Q36.97 3.62 35.81 3.62L35.81 3.62L35.81 3.62Q35.16 3.62 34.66 4.05L34.66 4.05L34.66 4.05Q34.18 4.47 34.18 5.12L34.18 5.12L34.18 5.12Q34.18 5.72 34.63 6.17L34.63 6.17L34.63 6.17Q35.06 6.60 35.93 7.08L35.93 7.08L36.70 7.50L36.70 7.50Q37.65 8.03 38.19 8.59L38.19 8.59L38.19 8.59Q38.72 9.15 38.72 9.92L38.72 9.92L38.72 9.92Q38.72 10.99 37.86 11.76L37.86 11.76L37.86 11.76Q37.00 12.54 35.54 12.54L35.54 12.54L35.54 12.54Q34.98 12.54 34.48 12.41L34.48 12.41L34.48 12.41Q33.97 12.29 33.92 12.29L33.92 12.29L33.92 12.29Q33.67 12.29 33.67 12.58L33.67 12.58L33.68 12.76L33.20 12.80L33.20 12.80Q33.14 12.41 32.66 10.04ZM47.18 5.35L46.68 5.33L46.68 5.33Q46.81 4.17 46.89 3.08L46.89 3.08L54.97 3.08L54.97 3.08Q54.89 4.13 54.86 4.53L54.86 4.53L54.86 4.53Q54.82 5.26 54.80 5.32L54.80 5.32L54.30 5.30L54.30 5.30Q54.38 4.34 54.38 4.16L54.38 4.16L54.38 4.16Q54.38 3.88 54.24 3.79L54.24 3.79L54.24 3.79Q54.07 3.69 53.66 3.69L53.66 3.69L52.06 3.69L52.06 3.69Q51.55 3.69 51.43 3.79L51.43 3.79L51.43 3.79Q51.33 3.87 51.32 4.36L51.32 4.36L51.32 11.22L51.32 11.22Q51.32 11.66 51.47 11.76L51.47 11.76L51.47 11.76Q51.63 11.87 52.14 11.87L52.14 11.87L52.70 11.87L52.71 12.41L49.02 12.40L49.02 11.87L49.24 11.87L49.24 11.87Q49.91 11.87 50.05 11.79L50.05 11.79L50.05 11.79Q50.20 11.70 50.20 11.28L50.20 11.28L50.20 4.48L50.20 4.48Q50.20 3.92 50.10 3.80L50.10 3.80L50.10 3.80Q50.00 3.69 49.57 3.69L49.57 3.69L48.10 3.69L48.10 3.69Q47.92 3.69 47.85 3.71L47.85 3.71L47.85 3.71Q47.78 3.72 47.67 3.72L47.67 3.72L47.67 3.72Q47.65 3.72 47.53 3.79L47.53 3.79L47.53 3.79Q47.45 3.84 47.42 3.86L47.42 3.86L47.42 3.86Q47.39 3.88 47.35 3.99L47.35 3.99L47.35 3.99Q47.33 4.05 47.30 4.14L47.30 4.14L47.30 4.14Q47.27 4.21 47.25 4.36L47.25 4.36L47.25 4.36Q47.22 4.59 47.22 4.61L47.22 4.61L47.22 4.61Q47.22 4.80 47.21 4.95L47.21 4.95L47.21 4.95Q47.21 5.02 47.20 5.15L47.20 5.15L47.20 5.15Q47.20 5.29 47.18 5.35L47.18 5.35ZM62.72 12.41L62.71 11.87L62.88 11.87L62.88 11.87Q63.27 11.87 63.40 11.73L63.40 11.73L63.40 11.73Q63.52 11.57 63.85 10.83L63.85 10.83L64.76 8.82L65.34 7.53L65.34 7.53Q65.60 6.97 65.65 6.86L65.65 6.86L65.65 6.86Q65.71 6.70 65.77 6.60L65.77 6.60L65.77 6.60Q65.82 6.51 65.83 6.45L65.83 6.45L65.93 6.21L67.35 2.74L67.65 2.74L67.65 2.74Q68.50 4.98 70.69 10.25L70.69 10.25L70.69 10.25Q71.14 11.34 71.33 11.64L71.33 11.64L71.33 11.64Q71.47 11.87 71.91 11.87L71.91 11.87L72.12 11.87L72.11 12.41L68.91 12.41L68.93 11.87L69.34 11.87L69.34 11.87Q69.96 11.87 69.96 11.70L69.96 11.70L69.96 11.70Q69.96 11.63 69.82 11.27L69.82 11.27L68.78 8.72L65.54 8.72L64.43 11.18L64.43 11.18Q64.29 11.50 64.29 11.63L64.29 11.63L64.29 11.63Q64.29 11.79 64.39 11.83L64.39 11.83L64.39 11.83Q64.48 11.87 64.87 11.87L64.87 11.87L65.44 11.87L65.44 12.41L62.72 12.41ZM67.22 4.79L65.80 8.10L68.54 8.10L67.22 4.79ZM80.23 3.64L79.85 3.64L79.85 3.08L83.21 3.08L83.23 3.64L82.69 3.64L82.69 3.64Q82.26 3.64 82.11 3.73L82.11 3.73L82.11 3.73Q81.94 3.83 81.94 4.16L81.94 4.16L81.94 9.33L81.94 9.33Q81.94 9.63 81.97 9.78L81.97 9.78L81.97 9.78Q82.01 10.01 82.17 10.41L82.17 10.41L82.17 10.41Q82.35 10.80 82.64 11.09L82.64 11.09L82.64 11.09Q82.95 11.40 83.51 11.63L83.51 11.63L83.51 11.63Q84.08 11.85 84.86 11.85L84.86 11.85L84.86 11.85Q85.72 11.85 86.26 11.67L86.26 11.67L86.26 11.67Q86.82 11.48 87.13 11.22L87.13 11.22L87.13 11.22Q87.44 10.96 87.58 10.49L87.58 10.49L87.58 10.49Q87.75 9.95 87.76 9.66L87.76 9.66L87.76 9.66Q87.79 9.18 87.79 8.67L87.79 8.67L87.79 4.14L87.79 4.14Q87.79 3.81 87.65 3.72L87.65 3.72L87.65 3.72Q87.50 3.64 87.02 3.64L87.02 3.64L86.53 3.64L86.56 3.08L89.19 3.08L89.19 3.64L89.00 3.64L89.00 3.64Q88.68 3.64 88.56 3.75L88.56 3.75L88.56 3.75Q88.45 3.86 88.45 4.25L88.45 4.25L88.45 9.22L88.45 9.22Q88.45 12.67 84.86 12.67L84.86 12.67L84.86 12.67Q82.69 12.67 81.74 11.76L81.74 11.76L81.74 11.76Q80.81 10.86 80.81 9.41L80.81 9.41L80.81 4.14L80.81 4.14Q80.81 3.81 80.71 3.72L80.71 3.72L80.71 3.72Q80.60 3.64 80.23 3.64L80.23 3.64ZM97.26 3.64L96.87 3.64L96.89 3.08L100.11 3.08L100.11 3.08Q101.24 3.08 101.84 3.21L101.84 3.21L101.84 3.21Q102.48 3.37 102.95 3.75L102.95 3.75L102.95 3.75Q103.95 4.57 103.95 5.71L103.95 5.71L103.95 5.71Q103.95 6.43 103.48 7.04L103.48 7.04L103.48 7.04Q102.99 7.66 101.96 7.92L101.96 7.92L104.64 11.49L104.64 11.49Q104.95 11.87 105.25 11.87L105.25 11.87L105.85 11.87L105.88 12.41L103.84 12.41L100.85 8.10L100.68 8.10L100.68 8.10Q100.64 8.10 100.58 8.11L100.58 8.11L100.58 8.11Q100.53 8.11 100.52 8.11L100.52 8.11L100.52 8.11Q99.63 8.11 99.24 8.03L99.24 8.03L99.24 11.46L99.24 11.46Q99.24 11.76 99.38 11.81L99.38 11.81L99.38 11.81Q99.50 11.87 100.21 11.87L100.21 11.87L100.92 11.87L100.89 12.41L97.17 12.41L97.17 11.87L97.49 11.87L97.49 11.87Q97.95 11.87 98.02 11.81L98.02 11.81L98.02 11.81Q98.10 11.74 98.10 11.46L98.10 11.46L98.10 4.14L98.10 4.14Q98.10 3.82 97.91 3.73L97.91 3.73L97.91 3.73Q97.69 3.64 97.26 3.64L97.26 3.64ZM99.24 4.28L99.24 7.57L99.24 7.57Q99.42 7.70 100.13 7.71L100.13 7.71L100.13 7.71Q101.40 7.71 101.99 7.27L101.99 7.27L101.99 7.27Q102.57 6.84 102.57 5.92L102.57 5.92L102.57 5.92Q102.57 4.92 101.80 4.27L101.80 4.27L101.80 4.27Q101.04 3.64 99.66 3.64L99.66 3.64L99.66 3.64Q99.41 3.64 99.33 3.75L99.33 3.75L99.33 3.75Q99.24 3.84 99.24 4.28L99.24 4.28ZM113.64 12.41L113.63 11.87L113.80 11.87L113.80 11.87Q114.19 11.87 114.32 11.73L114.32 11.73L114.32 11.73Q114.44 11.57 114.78 10.83L114.78 10.83L115.68 8.82L116.26 7.53L116.26 7.53Q116.53 6.97 116.57 6.86L116.57 6.86L116.57 6.86Q116.63 6.70 116.69 6.60L116.69 6.60L116.69 6.60Q116.74 6.51 116.75 6.45L116.75 6.45L116.85 6.21L118.28 2.74L118.57 2.74L118.57 2.74Q119.42 4.98 121.61 10.25L121.61 10.25L121.61 10.25Q122.06 11.34 122.25 11.64L122.25 11.64L122.25 11.64Q122.39 11.87 122.83 11.87L122.83 11.87L123.04 11.87L123.03 12.41L119.83 12.41L119.85 11.87L120.26 11.87L120.26 11.87Q120.88 11.87 120.88 11.70L120.88 11.70L120.88 11.70Q120.88 11.63 120.74 11.27L120.74 11.27L119.70 8.72L116.46 8.72L115.35 11.18L115.35 11.18Q115.21 11.50 115.21 11.63L115.21 11.63L115.21 11.63Q115.21 11.79 115.31 11.83L115.31 11.83L115.31 11.83Q115.40 11.87 115.79 11.87L115.79 11.87L116.36 11.87L116.36 12.41L113.64 12.41ZM118.14 4.79L116.72 8.10L119.46 8.10L118.14 4.79ZM130.79 3.64L130.77 3.08L132.95 3.08L138.68 10.48L138.68 4.14L138.68 4.14Q138.68 3.81 138.53 3.72L138.53 3.72L138.53 3.72Q138.37 3.64 137.92 3.64L137.92 3.64L137.42 3.64L137.45 3.08L140.43 3.08L140.43 3.64L140.11 3.64L140.11 3.64Q139.64 3.64 139.49 3.75L139.49 3.75L139.49 3.75Q139.34 3.86 139.34 4.25L139.34 4.25L139.34 12.32L139.34 12.47L139.34 12.47Q139.34 12.52 139.33 12.57L139.33 12.57L139.33 12.57Q139.32 12.61 139.28 12.64L139.28 12.64L139.28 12.64Q139.27 12.65 139.21 12.65L139.21 12.65L139.02 12.65L138.96 12.65L138.93 12.65L138.91 12.64L138.91 12.64Q138.88 12.64 138.87 12.63L138.87 12.63L138.87 12.63Q138.85 12.61 138.85 12.60L138.85 12.60L138.85 12.60Q138.85 12.58 138.84 12.57L138.84 12.57L138.84 12.57Q138.81 12.54 138.78 12.50L138.78 12.50L138.78 12.50Q138.77 12.48 138.75 12.45L138.75 12.45L138.75 12.45Q138.73 12.41 138.71 12.40L138.71 12.40L132.61 4.56L132.68 11.22L132.68 11.22Q132.68 11.67 132.84 11.77L132.84 11.77L132.84 11.77Q133 11.87 133.71 11.87L133.71 11.87L133.95 11.87L133.95 12.41L131.01 12.41L131.01 11.87L131.43 11.87L131.43 11.87Q131.81 11.87 131.92 11.76L131.92 11.76L131.92 11.76Q132.02 11.66 132.02 11.25L132.02 11.25L132.02 3.80L131.88 3.64L130.79 3.64ZM148.45 5.35L147.95 5.33L147.95 5.33Q148.07 4.17 148.16 3.08L148.16 3.08L156.24 3.08L156.24 3.08Q156.15 4.13 156.13 4.53L156.13 4.53L156.13 4.53Q156.08 5.26 156.06 5.32L156.06 5.32L155.57 5.30L155.57 5.30Q155.65 4.34 155.65 4.16L155.65 4.16L155.65 4.16Q155.65 3.88 155.50 3.79L155.50 3.79L155.50 3.79Q155.33 3.69 154.93 3.69L154.93 3.69L153.32 3.69L153.32 3.69Q152.82 3.69 152.69 3.79L152.69 3.79L152.69 3.79Q152.60 3.87 152.59 4.36L152.59 4.36L152.59 11.22L152.59 11.22Q152.59 11.66 152.74 11.76L152.74 11.76L152.74 11.76Q152.89 11.87 153.41 11.87L153.41 11.87L153.97 11.87L153.98 12.41L150.29 12.40L150.29 11.87L150.51 11.87L150.51 11.87Q151.18 11.87 151.32 11.79L151.32 11.79L151.32 11.79Q151.46 11.70 151.46 11.28L151.46 11.28L151.46 4.48L151.46 4.48Q151.46 3.92 151.36 3.80L151.36 3.80L151.36 3.80Q151.27 3.69 150.84 3.69L150.84 3.69L149.37 3.69L149.37 3.69Q149.19 3.69 149.12 3.71L149.12 3.71L149.12 3.71Q149.05 3.72 148.94 3.72L148.94 3.72L148.94 3.72Q148.91 3.72 148.80 3.79L148.80 3.79L148.80 3.79Q148.72 3.84 148.69 3.86L148.69 3.86L148.69 3.86Q148.66 3.88 148.62 3.99L148.62 3.99L148.62 3.99Q148.59 4.05 148.57 4.14L148.57 4.14L148.57 4.14Q148.54 4.21 148.52 4.36L148.52 4.36L148.52 4.36Q148.49 4.59 148.49 4.61L148.49 4.61L148.49 4.61Q148.49 4.80 148.48 4.95L148.48 4.95L148.48 4.95Q148.48 5.02 148.47 5.15L148.47 5.15L148.47 5.15Q148.46 5.29 148.45 5.35L148.45 5.35Z"></path></g></svg>